<?xml version="1.0" standalone="no"?>
<!DOCTYPE svg PUBLIC "-//W3C//DTD SVG 20010904//EN"
 "http://www.w3.org/TR/2001/REC-SVG-20010904/DTD/svg10.dtd">
<svg version="1.0" xmlns="http://www.w3.org/2000/svg"
 width="2361.000000pt" height="492.000000pt" viewBox="0 0 2361.000000 492.000000"
 preserveAspectRatio="xMidYMid meet">
<metadata>
Created by potrace 1.16, written by Peter Selinger 2001-2019
</metadata>
<g transform="translate(0.000000,492.000000) scale(0.100000,-0.100000)"
fill="#000000" stroke="none">
<path d="M7085 4903 c-253 -33 -488 -122 -665 -253 -95 -71 -255 -223 -319
-304 -100 -126 -179 -285 -257 -516 l-43 -125 0 598 -1 597 -1232 -2 -1233 -3
-60 -24 c-83 -33 -159 -83 -217 -144 -73 -74 -250 -347 -646 -994 l-81 -133
4624 0 4625 0 0 655 0 655 -2232 -1 c-1228 -1 -2246 -4 -2263 -6z"/>
<path d="M11810 4255 l0 -655 655 0 655 0 0 655 0 655 -655 0 -655 0 0 -655z"/>
<path d="M16130 4255 l0 -655 655 0 655 0 0 655 0 655 -655 0 -655 0 0 -655z"/>
<path d="M18675 4894 c-246 -38 -487 -144 -665 -292 -160 -134 -274 -261 -349
-389 -97 -165 -201 -450 -201 -553 l0 -60 3040 0 3040 0 0 655 0 655 -2387 -1
c-1986 -1 -2403 -3 -2478 -15z"/>
<path d="M1179 1797 c-602 -946 -1104 -1737 -1117 -1758 l-23 -39 769 0 769 0
1076 1678 c591 922 1075 1678 1074 1679 -1 1 -319 36 -707 77 -388 42 -714 77
-726 79 -17 3 -182 -251 -1115 -1716z"/>
<path d="M11828 2583 l-3 -918 -28 90 c-16 49 -55 141 -87 205 -164 326 -387
571 -650 713 -196 106 -292 127 -746 166 -969 84 -4437 362 -4442 357 -11 -12
75 -275 123 -374 174 -363 446 -579 900 -717 l115 -35 1678 -140 c922 -77
1693 -142 1712 -146 133 -22 208 -104 218 -235 8 -119 -47 -223 -143 -268
l-45 -21 -2340 0 -2340 0 0 975 c0 536 -3 975 -7 975 -5 0 -291 21 -636 46
-346 25 -630 44 -631 42 -2 -1 -6 -744 -10 -1651 l-7 -1647 3168 2 3168 3 105
42 c506 204 829 626 905 1182 8 63 18 117 20 120 3 2 5 -43 5 -101 0 -81 6
-129 25 -203 72 -276 195 -496 379 -680 150 -149 341 -267 542 -335 l88 -30
1772 0 1772 0 68 21 c463 143 782 437 909 840 61 194 60 178 56 1264 -2 545
-4 991 -6 993 -1 2 -1221 80 -1282 82 -1 0 -4 -361 -5 -802 l-3 -803 -23 -65
c-47 -130 -124 -215 -239 -262 l-58 -23 -1190 0 -1190 0 -68 32 c-126 60 -191
129 -231 247 -20 60 -21 80 -24 971 l-3 911 -617 42 c-339 24 -629 46 -644 48
l-28 6 -2 -919z"/>
<path d="M17540 3111 c0 -23 76 -223 112 -295 65 -130 133 -220 261 -342 170
-163 306 -249 517 -326 195 -72 161 -68 1905 -213 1781 -147 1800 -148 1853
-170 99 -42 145 -114 145 -229 0 -122 -46 -196 -149 -237 l-59 -24 -2327 -3
-2326 -2 -6 -63 c-3 -34 -7 -320 -10 -634 l-4 -573 2508 0 2508 0 91 30 c352
115 617 343 789 677 109 212 154 363 172 582 14 161 7 337 -17 445 -47 214
-200 479 -388 674 -162 169 -314 271 -515 345 -112 42 -211 62 -375 76 -237
21 -1436 97 -3240 206 -594 35 -1149 69 -1234 75 -189 12 -211 12 -211 1z"/>
</g>
</svg>
