<svg version="1.0" xmlns="http://www.w3.org/2000/svg" width="3148" height="656" viewBox="0 0 2361 492"><path d="M708.5 1.7C683.2 5 659.7 13.9 642 27c-9.5 7.1-25.5 22.3-31.9 30.4-10 12.6-17.9 28.5-25.7 51.6l-4.3 12.5V61.7L580 2l-123.2.2-123.3.3-6 2.4c-8.3 3.3-15.9 8.3-21.7 14.4-7.3 7.4-25 34.7-64.6 99.4l-8.1 13.3H1158V1l-223.2.1c-122.8.1-224.6.4-226.3.6zM1181 66.5V132h131V1h-131v65.5zM1613 66.5V132h131V1h-131v65.5zM1867.5 2.6c-24.6 3.8-48.7 14.4-66.5 29.2-16 13.4-27.4 26.1-34.9 38.9-9.7 16.5-20.1 45-20.1 55.3v6h608V1l-238.7.1c-198.6.1-240.3.3-247.8 1.5zM117.9 312.3C57.7 406.9 7.5 486 6.2 488.1L3.9 492h153.8l107.6-167.8c59.1-92.2 107.5-167.8 107.4-167.9-.1-.1-31.9-3.6-70.7-7.7-38.8-4.2-71.4-7.7-72.6-7.9-1.7-.3-18.2 25.1-111.5 171.6zM1182.8 233.7l-.3 91.8-2.8-9c-1.6-4.9-5.5-14.1-8.7-20.5-16.4-32.6-38.7-57.1-65-71.3-19.6-10.6-29.2-12.7-74.6-16.6-96.9-8.4-443.7-36.2-444.2-35.7-1.1 1.2 7.5 27.5 12.3 37.4 17.4 36.3 44.6 57.9 90 71.7L701 285l167.8 14c92.2 7.7 169.3 14.2 171.2 14.6 13.3 2.2 20.8 10.4 21.8 23.5.8 11.9-4.7 22.3-14.3 26.8l-4.5 2.1H575v-97.5c0-53.6-.3-97.5-.7-97.5-.5 0-29.1-2.1-63.6-4.6-34.6-2.5-63-4.4-63.1-4.2-.2.1-.6 74.4-1 165.1l-.7 164.7 316.8-.2 316.8-.3 10.5-4.2c50.6-20.4 82.9-62.6 90.5-118.2.8-6.3 1.8-11.7 2-12 .3-.2.5 4.3.5 10.1 0 8.1.6 12.9 2.5 20.3 7.2 27.6 19.5 49.6 37.9 68 15 14.9 34.1 26.7 54.2 33.5l8.8 3h354.4l6.8-2.1c46.3-14.3 78.2-43.7 90.9-84 6.1-19.4 6-17.8 5.6-126.4-.2-54.5-.4-99.1-.6-99.3-.1-.2-122.1-8-128.2-8.2-.1 0-.4 36.1-.5 80.2l-.3 80.3-2.3 6.5c-4.7 13-12.4 21.5-23.9 26.2l-5.8 2.3h-238l-6.8-3.2c-12.6-6-19.1-12.9-23.1-24.7-2-6-2.1-8-2.4-97.1l-.3-91.1-61.7-4.2c-33.9-2.4-62.9-4.6-64.4-4.8l-2.8-.6-.2 91.9zM1754 180.9c0 2.3 7.6 22.3 11.2 29.5 6.5 13 13.3 22 26.1 34.2 17 16.3 30.6 24.9 51.7 32.6 19.5 7.2 16.1 6.8 190.5 21.3 178.1 14.7 180 14.8 185.3 17 9.9 4.2 14.5 11.4 14.5 22.9 0 12.2-4.6 19.6-14.9 23.7l-5.9 2.4-232.7.3-232.6.2-.6 6.3c-.3 3.4-.7 32-1 63.4l-.4 57.3h501.6l9.1-3c35.2-11.5 61.7-34.3 78.9-67.7 10.9-21.2 15.4-36.3 17.2-58.2 1.4-16.1.7-33.7-1.7-44.5-4.7-21.4-20-47.9-38.8-67.4-16.2-16.9-31.4-27.1-51.5-34.5-11.2-4.2-21.1-6.2-37.5-7.6-23.7-2.1-143.6-9.7-324-20.6-59.4-3.5-114.9-6.9-123.4-7.5-18.9-1.2-21.1-1.2-21.1-.1z"/></svg>